# xmcd CD database file
# Copyright (C) 1995 Ti Kan
#
# Track frame offsets:
#	182
#	10132
#	21595
#	31977
#	42795
#	53145
#	64462
#	76152
#	87745
#	98920
#	109270
#	120032
#	131075
#	144145
#	154770
#	166215
#
# Disc length: 2399 seconds
#
# Revision: 1
# Processed by: cddbd v1.4b41PL1 Copyright (c) Steve Scherf et al.
# Submitted via: xmcd 1.4
#
DISCID=cb095d10
DTITLE=Patsy Cline - Walkin' After Midnight
DYEAR=1900
DGENRE=
TTITLE0=Turn The Cards Slowly
TTITLE1=The Heart You Break
TTITLE2=Three Cigarettes In An Ashtray
TTITLE3=I Cried All The Way  to The Altar
TTITLE4=Pick Me Up (On Your Way Down)
TTITLE5=Just Out Of Reach
TTITLE6=In Care Of The Blues
TTITLE7=I've Loved And Lost Again
TTITLE8=Hungry For Love
TTITLE9=I Love You Honey
TTITLE10=Stop Look And Listen
TTITLE11=Don't Ever Leave Me
TTITLE12=If I Could See The World
TTITLE13=Honky Tonk Merry-Go-Round
TTITLE14=Walkin' After Midnight
TTITLE15=A Church A Courtroom And Then Goodbye
EXTD=
EXTT0=
EXTT1=
EXTT2=
EXTT3=
EXTT4=
EXTT5=
EXTT6=
EXTT7=
EXTT8=
EXTT9=
EXTT10=
EXTT11=
EXTT12=
EXTT13=
EXTT14=
EXTT15=
PLAYORDER=
